<?xml version="1.0" standalone="yes"?>

<svg version="1.1" viewBox="0.0 0.0 836.4068241469816 303.28608923884514" fill="none" stroke="none" stroke-linecap="square" stroke-miterlimit="10" xmlns="http://www.w3.org/2000/svg" xmlns:xlink="http://www.w3.org/1999/xlink"><clipPath id="p.0"><path d="m0 0l836.4068 0l0 303.2861l-836.4068 0l0 -303.2861z" clip-rule="nonzero"></path></clipPath><g clip-path="url(#p.0)"><path fill="#000000" fill-opacity="0.0" d="m0 0l836.4068 0l0 303.2861l-836.4068 0z" fill-rule="nonzero"></path><path fill="#333841" d="m201.4116 6.230377l54.369812 54.42611l2.5327606 -2.532753l-54.369827 -54.426113z" fill-rule="nonzero"></path><path fill="#333841" d="m58.49559 7.2802415l145.43648 0l0 -3.6021416l-145.43648 0z" fill-rule="nonzero"></path><path fill="#333841" d="m58.482 3.7107584l-45.36447 45.36447l2.5327559 2.5327568l45.36447 -45.36447z" fill-rule="nonzero"></path><path fill="#333841" d="m3.438091 54.07977l0 0c0 -3.7456818 3.0364754 -6.782158 6.782157 -6.782158l0 0c1.7987404 0 3.5238085 0.7145462 4.7957096 1.9864464c1.2719011 1.271904 1.9864473 2.9969711 1.9864473 4.7957115l0 0c0 3.7456818 -3.0364742 6.782158 -6.782157 6.782158l0 0c-3.7456818 0 -6.782157 -3.0364761 -6.782157 -6.782158z" fill-rule="nonzero"></path><path stroke="#c36159" stroke-width="3.0" stroke-linejoin="round" stroke-linecap="butt" d="m3.438091 54.07977l0 0c0 -3.7456818 3.0364754 -6.782158 6.782157 -6.782158l0 0c1.7987404 0 3.5238085 0.7145462 4.7957096 1.9864464c1.2719011 1.271904 1.9864473 2.9969711 1.9864473 4.7957115l0 0c0 3.7456818 -3.0364742 6.782158 -6.782157 6.782158l0 0c-3.7456818 0 -6.782157 -3.0364761 -6.782157 -6.782158z" fill-rule="nonzero"></path><path fill="#333841" d="m194.81041 24.568153l22.963654 22.963654l2.5327454 -2.5327568l-22.963654 -22.963652z" fill-rule="nonzero"></path><path fill="#333841" d="m67.37551 25.637854l129.93039 0l0 -3.6021423l-129.93039 0z" fill-rule="nonzero"></path><path fill="#333841" d="m67.35988 22.072277l-27.156773 27.156773l2.532753 2.5327568l27.156773 -27.156773z" fill-rule="nonzero"></path><path fill="#333841" d="m30.54111 54.222157l0 0c0 -3.7456818 3.0364742 -6.782158 6.782156 -6.782158l0 0c1.7987404 0 3.5238113 0.7145462 4.7957115 1.9864502c1.2719002 1.2719002 1.9864464 2.9969673 1.9864464 4.7957077l0 0c0 3.7456818 -3.0364723 6.782158 -6.782158 6.782158l0 0c-3.7456818 0 -6.782156 -3.0364761 -6.782156 -6.782158z" fill-rule="nonzero"></path><path stroke="#c36159" stroke-width="3.0" stroke-linejoin="round" stroke-linecap="butt" d="m30.54111 54.222157l0 0c0 -3.7456818 3.0364742 -6.782158 6.782156 -6.782158l0 0c1.7987404 0 3.5238113 0.7145462 4.7957115 1.9864502c1.2719002 1.2719002 1.9864464 2.9969673 1.9864464 4.7957077l0 0c0 3.7456818 -3.0364723 6.782158 -6.782158 6.782158l0 0c-3.7456818 0 -6.782156 -3.0364761 -6.782156 -6.782158z" fill-rule="nonzero"></path><path fill="#333841" d="m183.41605 39.417892l8.358093 8.358093l2.5327606 -2.5327568l-8.358093 -8.358093z" fill-rule="nonzero"></path><path fill="#333841" d="m82.91291 40.458717l103.02688 0l0 -3.6021385l-103.02688 0z" fill-rule="nonzero"></path><path fill="#333841" d="m83.01145 36.858658l-10.778282 10.750145l2.5327606 2.532753l10.778282 -10.750141z" fill-rule="nonzero"></path><path fill="#333841" d="m62.577854 52.61586l0 0c0 -3.7456856 3.0364723 -6.782158 6.7821617 -6.782158l0 0c1.7987366 0 3.5238037 0.7145462 4.7957077 1.9864464c1.2718964 1.2719002 1.9864426 2.9969711 1.9864426 4.7957115l0 0c0 3.7456818 -3.0364685 6.782154 -6.7821503 6.782154l0 0c-3.7456894 0 -6.7821617 -3.0364723 -6.7821617 -6.782154z" fill-rule="nonzero"></path><path stroke="#43c3b1" stroke-width="3.0" stroke-linejoin="round" stroke-linecap="butt" d="m62.577854 52.61586l0 0c0 -3.7456856 3.0364723 -6.782158 6.7821617 -6.782158l0 0c1.7987366 0 3.5238037 0.7145462 4.7957077 1.9864464c1.2718964 1.2719002 1.9864426 2.9969711 1.9864426 4.7957115l0 0c0 3.7456818 -3.0364685 6.782154 -6.7821503 6.782154l0 0c-3.7456894 0 -6.7821617 -3.0364723 -6.7821617 -6.782154z" fill-rule="nonzero"></path><path fill="#333841" d="m287.04016 297.05573l-54.369843 -54.426117l-2.5327454 2.5327454l54.369812 54.426117z" fill-rule="nonzero"></path><path fill="#333841" d="m429.95615 296.00586l-145.43646 0l0 3.6021423l145.43646 0z" fill-rule="nonzero"></path><path fill="#333841" d="m429.96976 299.57532l45.36447 -45.364456l-2.5327759 -2.5327606l-45.36447 45.36447z" fill-rule="nonzero"></path><path fill="#333841" d="m485.01364 249.20631l0 0c0 3.7456818 -3.0364685 6.7821655 -6.782135 6.7821655l0 0c-1.7987366 0 -3.5238037 -0.71455383 -4.7957153 -1.9864502c-1.2719116 -1.2718964 -1.9864502 -2.9969635 -1.9864502 -4.7957153l0 0c0 -3.7456818 3.0364685 -6.7821503 6.7821655 -6.7821503l0 0c3.7456665 0 6.782135 3.0364685 6.782135 6.7821503z" fill-rule="nonzero"></path><path stroke="#2973a8" stroke-width="3.0" stroke-linejoin="round" stroke-linecap="butt" d="m485.01364 249.20631l0 0c0 3.7456818 -3.0364685 6.7821655 -6.782135 6.7821655l0 0c-1.7987366 0 -3.5238037 -0.71455383 -4.7957153 -1.9864502c-1.2719116 -1.2718964 -1.9864502 -2.9969635 -1.9864502 -4.7957153l0 0c0 -3.7456818 3.0364685 -6.7821503 6.7821655 -6.7821503l0 0c3.7456665 0 6.782135 3.0364685 6.782135 6.7821503z" fill-rule="nonzero"></path><path fill="#333841" d="m293.63998 278.71878l-41.818604 -41.81862l-2.5327454 2.5327606l41.818604 41.818604z" fill-rule="nonzero"></path><path fill="#333841" d="m421.07623 277.64822l-129.93039 0l0 3.6021423l129.93039 0z" fill-rule="nonzero"></path><path fill="#333841" d="m421.09186 281.2138l27.1568 -27.156769l-2.5327759 -2.5327606l-27.156769 27.156784z" fill-rule="nonzero"></path><path fill="#333841" d="m457.91064 249.06393l0 0c0 3.7456818 -3.0364685 6.7821503 -6.7821655 6.7821503l0 0c-1.7987366 0 -3.5238037 -0.7145386 -4.7957153 -1.9864502c-1.2718811 -1.2718964 -1.9864502 -2.9969635 -1.9864502 -4.7957l0 0c0 -3.7456818 3.036499 -6.7821655 6.7821655 -6.7821655l0 0c3.745697 0 6.7821655 3.0364838 6.7821655 6.7821655z" fill-rule="nonzero"></path><path stroke="#2973a8" stroke-width="3.0" stroke-linejoin="round" stroke-linecap="butt" d="m457.91064 249.06393l0 0c0 3.7456818 -3.0364685 6.7821503 -6.7821655 6.7821503l0 0c-1.7987366 0 -3.5238037 -0.7145386 -4.7957153 -1.9864502c-1.2718811 -1.2718964 -1.9864502 -2.9969635 -1.9864502 -4.7957l0 0c0 -3.7456818 3.036499 -6.7821655 6.7821655 -6.7821655l0 0c3.745697 0 6.7821655 3.0364838 6.7821655 6.7821655z" fill-rule="nonzero"></path><path fill="#333841" d="m305.0382 263.87024l-36.69684 -36.696808l-2.5327454 2.5327606l36.696808 36.696823z" fill-rule="nonzero"></path><path fill="#333841" d="m405.53885 262.82736l-103.026886 0l0 3.6021423l103.026886 0z" fill-rule="nonzero"></path><path fill="#333841" d="m405.4403 266.42743l10.778259 -10.750137l-2.5327454 -2.5327606l-10.77829 10.750153z" fill-rule="nonzero"></path><path fill="#333841" d="m425.8739 250.67023l0 0c0 3.7456818 -3.036499 6.7821655 -6.7821655 6.7821655l0 0c-1.7987366 0 -3.5238037 -0.7145386 -4.7957153 -1.9864502c-1.2718811 -1.2718964 -1.9864502 -2.9969788 -1.9864502 -4.7957153l0 0c0 -3.7456818 3.0364685 -6.7821503 6.7821655 -6.7821503l0 0c3.7456665 0 6.7821655 3.0364685 6.7821655 6.7821503z" fill-rule="nonzero"></path><path stroke="#43c3b1" stroke-width="3.0" stroke-linejoin="round" stroke-linecap="butt" d="m425.8739 250.67023l0 0c0 3.7456818 -3.036499 6.7821655 -6.7821655 6.7821655l0 0c-1.7987366 0 -3.5238037 -0.7145386 -4.7957153 -1.9864502c-1.2718811 -1.2718964 -1.9864502 -2.9969788 -1.9864502 -4.7957153l0 0c0 -3.7456818 3.0364685 -6.7821503 6.7821655 -6.7821503l0 0c3.7456665 0 6.7821655 3.0364685 6.7821655 6.7821503z" fill-rule="nonzero"></path><path fill="#333841" d="m104.65391 146.53871l0 0c0 -55.882378 45.301613 -101.184 101.184 -101.184l0 0c26.835663 0 52.57222 10.660427 71.5479 29.636108c18.975677 18.975677 29.636108 44.712227 29.636108 71.54789l0 0c0 55.882385 -45.301636 101.184006 -101.184006 101.184006l0 0c-55.882385 0 -101.184 -45.30162 -101.184 -101.184006z" fill-rule="nonzero"></path><path stroke="#2973a8" stroke-width="4.0" stroke-linejoin="round" stroke-linecap="butt" d="m104.65391 146.53871l0 0c0 -55.882378 45.301613 -101.184 101.184 -101.184l0 0c26.835663 0 52.57222 10.660427 71.5479 29.636108c18.975677 18.975677 29.636108 44.712227 29.636108 71.54789l0 0c0 55.882385 -45.301636 101.184006 -101.184006 101.184006l0 0c-55.882385 0 -101.184 -45.30162 -101.184 -101.184006z" fill-rule="nonzero"></path><path fill="#333841" d="m129.9499 146.53871l0 0c0 -41.91178 33.97621 -75.888 75.888 -75.888l0 0c20.126755 0 39.429153 7.995323 53.660934 22.227081c14.2317505 14.231758 22.227081 33.534172 22.227081 53.66092l0 0c0 41.91179 -33.976227 75.888 -75.888016 75.888l0 0c-41.91179 0 -75.888 -33.97621 -75.888 -75.888z" fill-rule="nonzero"></path><path stroke="#43c3b1" stroke-width="4.0" stroke-linejoin="round" stroke-linecap="butt" d="m129.9499 146.53871l0 0c0 -41.91178 33.97621 -75.888 75.888 -75.888l0 0c20.126755 0 39.429153 7.995323 53.660934 22.227081c14.2317505 14.231758 22.227081 33.534172 22.227081 53.66092l0 0c0 41.91179 -33.976227 75.888 -75.888016 75.888l0 0c-41.91179 0 -75.888 -33.97621 -75.888 -75.888z" fill-rule="nonzero"></path><path fill="#333841" d="m320.376 105.27315l0 112.23497l94.75708 0l0 -9.557129l-83.64761 0l0 -45.008347l78.25629 0l0 -9.475433l-78.25629 0l0 -38.636932l82.42233 0l0 -9.557129z" fill-rule="evenodd"></path><path fill="#333841" d="m491.67395 114.83028c8.985596 0 16.564362 0.2904358 22.736267 0.8713074c6.1900635 0.5627136 11.191162 1.6609192 15.003235 3.2946167c3.8120117 1.6336975 6.562195 3.9390259 8.250366 6.915985c1.6882324 2.9588165 2.5322876 6.834305 2.5322876 11.62648c0 4.846634 -0.86224365 8.731201 -2.586731 11.653702c-1.7063599 2.904358 -4.492798 5.1642914 -8.359314 6.779846c-3.866516 1.5973969 -8.903931 2.6592865 -15.112122 3.1856995c-6.2082214 0.50827026 -13.805145 0.76239014 -22.790741 0.76239014l-34.471954 0l0 -45.090027zm-45.009613 -9.557129l0 112.23497l10.210907 0l0 -48.030685l45.663116 0c1.6882019 0 3.32193 -0.02722168 4.9012146 -0.0816803c1.5792847 -0.05445862 3.1313477 -0.13613892 4.656189 -0.24505615l36.187378 48.35742l12.82489 0l-38.31128 -49.501007c9.80249 -1.851532 16.90924 -5.2913666 21.320374 -10.319519c4.411072 -5.0463104 6.616638 -11.762619 6.616638 -20.148926c0 -5.391205 -0.8985596 -10.101692 -2.6956787 -14.131477c-1.7971191 -4.029793 -4.6470947 -7.3879395 -8.549927 -10.0744705c-3.8847046 -2.7046738 -8.876648 -4.7195663 -14.975952 -6.0446777c-6.099304 -1.3432617 -13.42392 -2.0148926 -21.973846 -2.0148926z" fill-rule="evenodd"></path><path fill="#333841" d="m652.10754 103.231026c-6.8617554 0 -13.451172 0.53549194 -19.76831 1.6064682c-6.3171387 1.0528259 -12.216797 2.6320724 -17.698914 4.7377243c-5.463928 2.0875015 -10.446838 4.7377243 -14.94873 7.9506607c-4.4837036 3.2129364 -8.322998 6.988594 -11.517883 11.326965c-3.1766968 4.320221 -5.6364136 9.194077 -7.3790894 14.621582c-1.7426147 5.409363 -2.6139526 11.408646 -2.6139526 17.997894c0 9.856644 1.8787842 18.433548 5.6364136 25.730728c3.7575684 7.29718 8.940186 13.360001 15.547791 18.188492c6.6257324 4.810318 14.458618 8.404449 23.498657 10.782394c9.040039 2.359787 18.842468 3.5396729 29.407349 3.5396729c5.173523 0 10.111084 -0.19059753 14.812622 -0.5717926c4.7196655 -0.38119507 9.266968 -0.934845 13.641785 -1.6609192c4.3929443 -0.74424744 8.640625 -1.6609192 12.743164 -2.750061c4.1206665 -1.0891266 8.195923 -2.341629 12.22583 -3.7575073l0 -49.33763l-55.874023 0l0 9.557114l45.663147 0l0 34.06259c-2.1238403 0.6534729 -4.7106323 1.2978668 -7.760254 1.933197c-3.0496826 0.61717224 -6.4260864 1.1889648 -10.129211 1.7153931c-3.703186 0.508255 -7.642334 0.92575073 -11.817444 1.2525024c-4.1569824 0.32673645 -8.359314 0.49009705 -12.607056 0.49009705c-10.837158 0 -20.285645 -1.2252655 -28.345398 -3.6758118c-8.059814 -2.4505463 -14.776306 -5.85408 -20.149536 -10.210602c-5.3550415 -4.356537 -9.357727 -9.538986 -12.007996 -15.547348c-2.632141 -6.026535 -3.9481812 -12.606705 -3.9481812 -19.740509c0 -7.6239166 1.3432617 -14.485443 4.029846 -20.58458c2.704773 -6.0991364 6.7528076 -11.272507 12.144165 -15.520119c5.3913574 -4.247612 12.144165 -7.515007 20.258423 -9.802185c8.114258 -2.2871704 17.617188 -3.4307632 28.50879 -3.4307632c5.336914 0 10.328918 0.38119507 14.976013 1.1435928c4.665222 0.76239014 9.021851 1.7970657 13.069946 3.1040192c4.066162 1.306961 7.851013 2.8317413 11.354492 4.574356c3.5216064 1.7426071 6.8345337 3.5941315 9.938599 5.5545654l0 -12.416092c-3.9209595 -1.6336975 -7.8146973 -3.1131058 -11.681274 -4.4382095c-3.866516 -1.3432693 -7.841919 -2.4868546 -11.92627 -3.4307632c-4.0844116 -0.96206665 -8.359314 -1.6972351 -12.82489 -2.2054977c-4.465576 -0.52641296 -9.285095 -0.78961945 -14.458618 -0.78961945z" fill-rule="evenodd"></path><path fill="#333841" d="m738.2875 105.27315l0 112.23497l94.75708 0l0 -9.557129l-83.647644 0l0 -45.008347l78.25629 0l0 -9.475433l-78.25629 0l0 -38.636932l82.42236 0l0 -9.557129z" fill-rule="evenodd"></path><path fill="#c36159" d="m141.876 108.32158l56.037384 112.23497l15.275497 0l56.52751 -112.23497l-11.354523 0l-52.524826 105.21008l-52.52484 -105.21008z" fill-rule="evenodd"></path></g></svg>

