<?xml version="1.0" standalone="yes"?>

<svg version="1.1" viewBox="0.0 0.0 25.0 25.0" fill="none" stroke="none" stroke-linecap="square" stroke-miterlimit="10" xmlns="http://www.w3.org/2000/svg" xmlns:xlink="http://www.w3.org/1999/xlink"><clipPath id="p.0"><path d="m0 0l25.0 0l0 25.0l-25.0 0l0 -25.0z" clip-rule="nonzero"></path></clipPath><g clip-path="url(#p.0)"><path fill="#000000" fill-opacity="0.0" d="m0 0l25.0 0l0 25.0l-25.0 0z" fill-rule="nonzero"></path><path fill="#000000" fill-opacity="0.0" d="m0.5905512 12.492619l0 0c0 -6.5665355 5.330279 -11.889764 11.905512 -11.889764l0 0c3.1575375 0 6.185751 1.2526679 8.418468 3.4824314c2.2327156 2.229763 3.4870434 5.2539706 3.4870434 8.407333l0 0c0 6.566534 -5.3302803 11.889763 -11.905512 11.889763l0 0c-6.575233 0 -11.905512 -5.323229 -11.905512 -11.889763z" fill-rule="nonzero"></path><path stroke="#ffffff" stroke-width="1.0" stroke-linejoin="round" stroke-linecap="butt" d="m0.5905512 12.492619l0 0c0 -6.5665355 5.330279 -11.889764 11.905512 -11.889764l0 0c3.1575375 0 6.185751 1.2526679 8.418468 3.4824314c2.2327156 2.229763 3.4870434 5.2539706 3.4870434 8.407333l0 0c0 6.566534 -5.3302803 11.889763 -11.905512 11.889763l0 0c-6.575233 0 -11.905512 -5.323229 -11.905512 -11.889763z" fill-rule="nonzero"></path><path fill="#000000" fill-opacity="0.0" d="m3.434305 12.501162l0 0c0 -4.9749117 4.0400133 -9.0078745 9.023622 -9.0078745l0 0c2.3932133 0 4.688407 0.94904137 6.380664 2.6383452c1.6922588 1.6893039 2.6429577 3.980492 2.6429577 6.3695292l0 0c0 4.9749107 -4.0400124 9.007874 -9.023622 9.007874l0 0c-4.9836087 0 -9.023622 -4.032963 -9.023622 -9.007874z" fill-rule="nonzero"></path><path stroke="#ffffff" stroke-width="1.0" stroke-linejoin="round" stroke-linecap="butt" d="m3.434305 12.501162l0 0c0 -4.9749117 4.0400133 -9.0078745 9.023622 -9.0078745l0 0c2.3932133 0 4.688407 0.94904137 6.380664 2.6383452c1.6922588 1.6893039 2.6429577 3.980492 2.6429577 6.3695292l0 0c0 4.9749107 -4.0400124 9.007874 -9.023622 9.007874l0 0c-4.9836087 0 -9.023622 -4.032963 -9.023622 -9.007874z" fill-rule="nonzero"></path><path fill="#ffffff" d="m4.947149 8.0073l6.5672565 13.141862l1.7902002 0l6.6246967 -13.141862l-1.3306847 0l-6.1556063 12.319301l-6.155606 -12.319301z" fill-rule="evenodd"></path></g></svg>

